<svg width="24" height="31" viewBox="0 0 24 31" fill="none" xmlns="http://www.w3.org/2000/svg">
<path d="M3 6H2V7V25C2 27.7614 4.23858 30 7 30H17C19.7614 30 22 27.7614 22 25V7V6H21H3Z" stroke="white" stroke-width="2"/>
<path d="M17 6L7 6L7 5C7 2.79086 8.79086 1 11 1L13 1C15.2091 1 17 2.79086 17 5L17 6Z" stroke="white" stroke-width="2" stroke-linecap="round" stroke-linejoin="round"/>
<line x1="12" y1="13" x2="12" y2="24" stroke="white" stroke-width="2" stroke-linecap="round" stroke-linejoin="round"/>
<line x1="7" y1="13" x2="7" y2="24" stroke="white" stroke-width="2" stroke-linecap="round" stroke-linejoin="round"/>
<line x1="17" y1="13" x2="17" y2="24" stroke="white" stroke-width="2" stroke-linecap="round" stroke-linejoin="round"/>
<line x1="23" y1="6" x2="1" y2="6" stroke="white" stroke-width="2" stroke-linecap="round" stroke-linejoin="round"/>
</svg>
